<svg viewBox="0 0 24 24" xmlns="http://www.w3.org/2000/svg" xmlns:xlink="http://www.w3.org/1999/xlink" width="24.000000" height="24.000000" fill="none">
	<rect id="IMAGE" width="24.000000" height="24.000000" x="0.000000" y="0.000000" />
	<path id="Vector" d="M7 2C4.23858 2 2 4.23858 2 7L2 17C2 19.7614 4.23858 22 7 22L17 22C19.7614 22 22 19.7614 22 17L22 7C22 4.23858 19.7614 2 17 2L7 2Z" fill-rule="nonzero" stroke="rgb(255,255,255)" stroke-linecap="round" stroke-linejoin="round" stroke-width="2.000000" />
	<path id="Vector" d="M15.5937 13.7988C15.2062 14.5456 14.5931 15.1512 13.8416 15.5295C13.0901 15.9077 12.2384 16.0394 11.4077 15.9057C10.5771 15.7721 9.80971 15.3799 9.21479 14.785C8.61987 14.19 8.22768 13.4227 8.09402 12.592C7.96035 11.7613 8.09202 10.9097 8.47028 10.1582C8.84854 9.40667 9.45414 8.79356 10.2009 8.40606C10.9477 8.01856 11.7977 7.8764 12.63 7.99982C13.4789 8.1257 14.2648 8.52128 14.8716 9.12812C15.4785 9.73497 15.8741 10.5209 16 11.3698C16.1234 12.202 15.9812 13.052 15.5937 13.7988Z" fill-rule="nonzero" stroke="rgb(255,255,255)" stroke-linecap="round" stroke-linejoin="round" stroke-width="2.000000" />
	<path id="Vector" d="M17.5 6.5L17.51 6.5" stroke="rgb(255,255,255)" stroke-linecap="round" stroke-linejoin="round" stroke-width="2.000000" />
</svg>
