<svg viewBox="0 0 24 24" xmlns="http://www.w3.org/2000/svg" xmlns:xlink="http://www.w3.org/1999/xlink" width="24.000000" height="24.000000" fill="none">
	<rect id="IMAGE" width="24.000000" height="24.000000" x="0.000000" y="0.000000" />
	<path id="Vector" d="M19.86 4.52981C19.2577 3.83732 18.4573 3.3465 17.567 3.12373C16.6767 2.90096 15.7395 2.957 14.8821 3.28426C14.0247 3.61152 13.2884 4.19421 12.773 4.95352C12.2575 5.71284 11.9877 6.61213 12 7.5298L12 8.52979C10.2426 8.57537 8.50127 8.18562 6.93101 7.39525C5.36074 6.60488 4.01032 5.43844 3 3.99979C3 3.99979 -1 12.9998 8 16.9998C5.94053 18.3978 3.48716 19.0987 1 18.9998C10 23.9998 21 18.9998 21 7.49979C21 7.21979 20.97 6.93981 20.92 6.66981C21.9406 5.6633 22.6608 4.39252 23 2.9998C22.0424 3.67528 20.9821 4.19191 19.86 4.52981Z" fill-rule="nonzero" stroke="rgb(255,255,255)" stroke-linecap="round" stroke-linejoin="round" stroke-width="2.000000" />
</svg>
